<svg width="96" height="22" viewBox="0 0 96 22" fill="none" xmlns="http://www.w3.org/2000/svg">
<g clip-path="url(#clip0_2539_11339)">
<path opacity="0.396508" fill-rule="evenodd" clip-rule="evenodd" d="M5.26749 10.996L3.42251 12.0471L2.5418 11.6829L0.488281 9.95876L5.26749 7.23601C5.32811 7.2028 5.39691 7.18605 5.46585 7.18605C5.53478 7.18605 5.60358 7.2028 5.6642 7.23601L10.4166 9.94542L8.17148 11.877L7.52568 12.0573L5.6642 10.996C5.60358 10.9627 5.53478 10.9461 5.46585 10.9461C5.39691 10.9461 5.32811 10.9627 5.26749 10.996ZM6.18289 5.58062L4.47435 5.2756L0.488281 2.77257L5.26749 0.0499613C5.32811 0.0166064 5.39691 0 5.46585 0C5.53478 0 5.60358 0.0166064 5.6642 0.0499613L10.4166 2.75937L8.8716 4.33244L6.18289 5.58062ZM4.50244 20.3646L0.488281 17.4788L0.535291 17.4521L5.26749 14.756C5.32811 14.7228 5.39691 14.7061 5.46585 14.7061C5.53478 14.7061 5.60358 14.7228 5.6642 14.756L10.4166 17.4654L9.34772 18.6171L7.24719 20.0041L4.50244 20.3646Z" fill="url(#paint0_linear_2539_11339)"/>
<path fill-rule="evenodd" clip-rule="evenodd" d="M0 10.9755V10.7095C0.0167259 10.5801 0.0581881 10.4517 0.126123 10.3314C0.220142 10.1716 0.341106 10.0518 0.489014 9.95873L0.536023 9.93204C0.845312 9.77222 1.22841 9.76555 1.55117 9.95191L4.31384 11.5231L5.0422 11.9382C5.30706 12.0892 5.63283 12.0892 5.89769 11.9382L9.38213 9.95191C9.71822 9.75888 10.1081 9.77222 10.4173 9.94538C10.5718 10.0318 10.7063 10.165 10.8072 10.3314C11.0358 10.7242 10.9752 11.2035 10.693 11.5231C10.619 11.6029 10.5248 11.6761 10.4241 11.736L6.10178 14.2057C5.90686 14.3123 5.685 14.3722 5.47002 14.3722C5.24816 14.3722 5.03303 14.3123 4.83811 14.2057L0.509079 11.736C0.408324 11.6761 0.314305 11.6029 0.247087 11.5231C0.110611 11.3686 0.0259717 11.1768 0 10.9755ZM0 3.78937V3.52337C0.0167259 3.39395 0.0581881 3.26555 0.126123 3.14525C0.220142 2.98558 0.341106 2.86564 0.489014 2.77253L0.536023 2.74585C0.845312 2.58617 1.22841 2.5795 1.55117 2.76586L4.31384 4.33694L5.0422 4.75211C5.30706 4.90298 5.63283 4.90298 5.89769 4.75211L9.38213 2.76586C9.71822 2.57283 10.1081 2.58617 10.4173 2.75919C10.5718 2.84577 10.7063 2.97891 10.8072 3.14525C11.0358 3.53813 10.9752 4.01731 10.693 4.33694C10.619 4.41685 10.5248 4.48995 10.4241 4.54985L6.10178 7.01967C5.90686 7.12626 5.685 7.18602 5.47002 7.18602C5.24816 7.18602 5.03303 7.12626 4.83811 7.01967L0.509079 4.54985C0.408324 4.48995 0.314305 4.41685 0.247087 4.33694C0.110611 4.18244 0.0259717 3.99066 0 3.78937V3.78937ZM0 14.7355V14.4695C0.0167259 14.34 0.0581881 14.2116 0.126123 14.0913C0.220142 13.9316 0.341106 13.8118 0.489014 13.7186L0.536023 13.6921C0.845312 13.5322 1.22841 13.5256 1.55117 13.7119L4.31384 15.283L5.0422 15.6983C5.30706 15.8492 5.63283 15.8492 5.89769 15.6983L9.38213 13.7119C9.71822 13.5189 10.1081 13.5322 10.4173 13.7054C10.5718 13.7918 10.7063 13.925 10.8072 14.0913C11.0358 14.4842 10.9752 14.9635 10.693 15.283C10.619 15.3629 10.5248 15.4362 10.4241 15.4961L6.10178 17.9657C5.90686 18.0722 5.685 18.1321 5.47002 18.1321C5.24816 18.1321 5.03303 18.0722 4.83811 17.9657L0.509079 15.4961C0.408324 15.4362 0.314305 15.3629 0.247087 15.283C0.110611 15.1286 0.0259717 14.9368 0 14.7355ZM5.61221 21.8836H5.32505C5.1547 21.8636 4.99025 21.8088 4.83811 21.7256L0.509079 19.2559C0.408324 19.196 0.314305 19.1229 0.247087 19.043C0.110611 18.8885 0.0259717 18.6967 0 18.4955V18.2295C0.0167259 18.1001 0.0581881 17.9717 0.126123 17.8515C0.220142 17.6917 0.341106 17.5719 0.489014 17.4786L0.536023 17.4519C0.845312 17.2922 1.22841 17.2856 1.55117 17.4719L4.31384 19.043L5.0422 19.4582C5.30706 19.6091 5.63283 19.6091 5.89769 19.4582L9.38213 17.4719C9.71822 17.2789 10.1081 17.2923 10.4173 17.4654C10.5718 17.5519 10.7063 17.685 10.8072 17.8515C11.0358 18.2442 10.9752 18.7234 10.693 19.043C10.619 19.1229 10.5248 19.196 10.4241 19.2559L6.10178 21.7256C5.94964 21.8088 5.78109 21.8636 5.61221 21.8836Z" fill="url(#paint1_linear_2539_11339)"/>
<path fill-rule="evenodd" clip-rule="evenodd" d="M17.4453 5.90754C17.4453 5.81032 17.4737 5.72899 17.5304 5.66342C17.5871 5.59812 17.67 5.56548 17.7798 5.56548H18.7203C18.7617 5.56548 18.8043 5.57385 18.8476 5.5906C18.8911 5.60735 18.9297 5.63176 18.9638 5.66342C18.9978 5.69535 19.0262 5.73183 19.0488 5.77285C19.0714 5.81429 19.0828 5.85914 19.0828 5.90754V12.3541C19.0828 12.5784 18.9638 12.6906 18.7259 12.6906H17.7854C17.5587 12.6906 17.4453 12.5784 17.4453 12.3541V5.90754ZM17.4453 3.42325C17.4453 3.198 17.5567 3.08544 17.7798 3.08544H18.7313C18.8373 3.08544 18.9222 3.11383 18.9865 3.16989C19.0507 3.22638 19.0828 3.31083 19.0828 3.42325V4.26223C19.0828 4.34881 19.0524 4.43042 18.992 4.50735C18.9316 4.58428 18.8466 4.62289 18.7371 4.62289H17.7854C17.5587 4.62289 17.4453 4.50267 17.4453 4.26223V3.42325ZM20.8503 5.728C20.8956 5.66824 20.9389 5.63077 20.9806 5.61573C21.0109 5.58578 21.0562 5.57002 21.1168 5.56818C21.1771 5.56619 21.2337 5.56548 21.2866 5.56548H21.8588C21.9684 5.56548 22.0494 5.60096 22.1023 5.67179C22.1554 5.74304 22.1911 5.82153 22.21 5.90754L22.2724 6.5024C22.3592 6.37508 22.4659 6.24975 22.5924 6.12627C22.7188 6.00307 22.869 5.8925 23.0427 5.79527C23.2164 5.69805 23.4148 5.61956 23.6377 5.5598C23.8605 5.49991 24.1118 5.46996 24.3911 5.46996C24.8368 5.46996 25.2333 5.5493 25.581 5.70827C25.9282 5.86738 26.2209 6.08525 26.4591 6.36202C26.6969 6.63894 26.8772 6.96425 27.0001 7.3384C27.1227 7.7124 27.184 8.11464 27.184 8.54456V12.2867C27.184 12.4214 27.1521 12.5222 27.088 12.5896C27.0235 12.657 26.9311 12.6906 26.8102 12.6906H25.9492C25.7981 12.6906 25.6972 12.6627 25.6462 12.6065C25.5952 12.5504 25.5695 12.4513 25.5695 12.3091V8.57253C25.5695 8.37438 25.5355 8.18078 25.4676 7.99172C25.3995 7.80295 25.3003 7.63376 25.1702 7.48402C25.0398 7.33456 24.8783 7.21491 24.6858 7.12507C24.4932 7.03522 24.2703 6.99037 24.0172 6.99037C23.8435 6.99037 23.6632 7.025 23.4761 7.09412C23.2893 7.16353 23.1183 7.26147 22.9636 7.38878C22.8086 7.51596 22.6801 7.67038 22.5781 7.85163C22.4763 8.03303 22.4233 8.23784 22.4197 8.46593V12.1016C22.4197 12.1726 22.4159 12.2438 22.4084 12.3148C22.4007 12.3856 22.3846 12.4496 22.3602 12.5054C22.3354 12.5616 22.3006 12.6065 22.2553 12.6401C22.21 12.6739 22.1514 12.6906 22.0796 12.6906H21.1449C21.0203 12.6906 20.9287 12.6618 20.8701 12.6038C20.8117 12.5457 20.7823 12.4626 20.7823 12.3541V5.89633C20.7823 5.8441 20.8049 5.78789 20.8503 5.728ZM28.8212 5.58791C28.8212 5.25493 28.8722 4.93415 28.9743 4.62573C29.0763 4.31687 29.2255 4.04492 29.4218 3.80917C29.6182 3.57356 29.8588 3.38549 30.144 3.2454C30.4293 3.10517 30.7532 3.03491 31.1156 3.03491H31.1724C31.2819 3.03491 31.3669 3.06784 31.4275 3.13313C31.4877 3.19871 31.5178 3.28756 31.5178 3.39954V4.17394C31.5178 4.28253 31.4887 4.37407 31.4304 4.44873C31.3715 4.52353 31.2913 4.561 31.1893 4.561C31.1327 4.561 31.061 4.5752 30.9742 4.60316C30.8872 4.63126 30.8042 4.67512 30.7248 4.73487C30.6454 4.79477 30.5775 4.87156 30.521 4.96509C30.4642 5.05834 30.436 5.16891 30.436 5.29594V6.2049H31.2574C31.3669 6.2049 31.4519 6.233 31.5122 6.28907C31.5728 6.34527 31.6029 6.43867 31.6029 6.56953V7.25976C31.6029 7.39063 31.5728 7.48885 31.5122 7.55414C31.4519 7.61971 31.3669 7.6525 31.2574 7.6525H30.436V12.3261C30.436 12.4457 30.3963 12.5364 30.3169 12.5981C30.2375 12.6598 30.1508 12.6906 30.0565 12.6906H29.1781C29.065 12.6906 28.9771 12.6563 28.9148 12.5867C28.8524 12.5176 28.8212 12.4306 28.8212 12.3261V7.6525H28.2602C28.1509 7.6525 28.0622 7.61971 27.9941 7.55414C27.9261 7.48885 27.8922 7.39063 27.8922 7.25976V6.56953C27.8922 6.43867 27.9261 6.34527 27.9941 6.28907C28.0622 6.233 28.1509 6.2049 28.2602 6.2049H28.8212V5.58791ZM33.8066 9.12238C33.8066 9.42187 33.8597 9.70503 33.9654 9.97243C34.0709 10.2397 34.2184 10.4746 34.4073 10.6763C34.596 10.8784 34.8179 11.0384 35.073 11.156C35.3279 11.274 35.6063 11.3329 35.9086 11.3329C36.2144 11.3329 36.5007 11.274 36.7669 11.156C37.0329 11.0384 37.2644 10.8784 37.4611 10.6763C37.6574 10.4746 37.8122 10.2397 37.9253 9.97243C38.0386 9.70503 38.0952 9.42187 38.0952 9.12238C38.0952 8.82687 38.0386 8.54556 37.9253 8.27815C37.8122 8.0106 37.6574 7.77598 37.4611 7.57387C37.2644 7.37203 37.0329 7.21122 36.7669 7.09143C36.5007 6.97163 36.2144 6.91188 35.9086 6.91188C35.6063 6.91188 35.3279 6.97163 35.073 7.09143C34.8179 7.21122 34.596 7.37203 34.4073 7.57387C34.2184 7.77598 34.0709 8.0106 33.9654 8.27815C33.8597 8.54556 33.8066 8.82687 33.8066 9.12238ZM39.6987 12.3598C39.6987 12.4271 39.6845 12.4821 39.6562 12.5251C39.6279 12.5683 39.5911 12.6019 39.5458 12.6262C39.5004 12.6506 39.4483 12.6675 39.3899 12.6766C39.3313 12.6861 39.2701 12.6906 39.2058 12.6906H38.4976C38.3767 12.6906 38.2926 12.659 38.2455 12.5953C38.1982 12.5317 38.1633 12.4513 38.1407 12.3541L38.1067 11.8772C37.9746 12.0081 37.8281 12.1307 37.6676 12.2445C37.5071 12.3587 37.3342 12.4579 37.1492 12.5419C36.9643 12.6262 36.7677 12.6915 36.56 12.7385C36.3523 12.785 36.1391 12.8086 35.9199 12.8086C35.5801 12.8086 35.2523 12.7643 34.937 12.6766C34.6216 12.5889 34.326 12.4654 34.0504 12.3064C33.7747 12.1475 33.5243 11.9558 33.2998 11.7313C33.075 11.5069 32.8824 11.2582 32.7218 10.9851C32.5615 10.7121 32.4368 10.4184 32.348 10.1043C32.2592 9.78991 32.2149 9.46289 32.2149 9.12238C32.2149 8.78202 32.2592 8.45472 32.348 8.14047C32.4368 7.82637 32.5615 7.53271 32.7218 7.25976C32.8824 6.98668 33.075 6.73886 33.2998 6.51645C33.5243 6.29389 33.7747 6.10313 34.0504 5.94416C34.326 5.7852 34.6216 5.66157 34.937 5.57385C35.2523 5.48585 35.5801 5.442 35.9199 5.442C36.1617 5.442 36.392 5.46712 36.611 5.51765C36.83 5.56818 37.0351 5.63914 37.2257 5.73083C37.4163 5.82267 37.5929 5.93295 37.7554 6.06197C37.9178 6.19085 38.0652 6.33222 38.1973 6.48551L38.2767 5.88512C38.2956 5.8177 38.3135 5.76263 38.3306 5.71962C38.3475 5.67662 38.3683 5.64198 38.3928 5.61573C38.4174 5.58975 38.4485 5.57187 38.4862 5.56264C38.5242 5.55313 38.5712 5.54859 38.6278 5.54859H39.1945C39.2547 5.54859 39.3153 5.55427 39.3757 5.56548C39.4362 5.57669 39.4909 5.59429 39.5401 5.61856C39.5889 5.64298 39.6279 5.67662 39.6562 5.71962C39.6845 5.76263 39.6987 5.816 39.6987 5.87958V12.3598ZM43.619 12.6906C43.3206 12.6871 43.04 12.642 42.7777 12.5559C42.5151 12.4699 42.2867 12.3455 42.0921 12.1824C41.8976 12.0196 41.7438 11.8193 41.6303 11.5814C41.5169 11.344 41.4603 11.0731 41.4603 10.7701V6.97916H40.809C40.6991 6.97916 40.6173 6.95517 40.5624 6.90663C40.5078 6.85809 40.4803 6.77803 40.4803 6.66633V5.86142C40.4803 5.7534 40.5078 5.67718 40.5624 5.63233C40.6173 5.58762 40.6991 5.56548 40.809 5.56548H41.4603C41.4603 5.3672 41.4614 5.16962 41.4632 4.97347C41.4652 4.77689 41.466 4.57974 41.466 4.38145C41.466 4.30665 41.4897 4.24775 41.5368 4.20489C41.584 4.16174 41.6566 4.12342 41.7551 4.08978C41.8193 4.06735 41.8966 4.04038 41.9873 4.00845C42.078 3.9768 42.1715 3.94585 42.2679 3.91576C42.3639 3.88596 42.4575 3.86069 42.5483 3.83997C42.639 3.81953 42.7144 3.80917 42.775 3.80917C42.8918 3.80917 42.9683 3.84096 43.0042 3.90455C43.04 3.96842 43.058 4.05231 43.058 4.1572C43.058 4.39267 43.057 4.62743 43.0553 4.8612C43.0532 5.09496 43.0523 5.32973 43.0523 5.56548H43.8682C43.9663 5.56548 44.0418 5.59046 44.095 5.64071C44.1477 5.69123 44.1741 5.77029 44.1741 5.87831V6.64376C44.1741 6.76313 44.1477 6.849 44.095 6.90095C44.0418 6.95304 43.9663 6.97916 43.8682 6.97916H43.0523C43.0523 7.22272 43.0523 7.42867 43.0523 7.597C43.0523 7.76576 43.0523 7.91437 43.0523 8.04396C43.0523 8.17298 43.0532 8.29362 43.0553 8.40618C43.057 8.51845 43.058 8.64023 43.058 8.77138C43.058 8.9021 43.058 9.05227 43.058 9.22074C43.058 9.38936 43.058 9.59517 43.058 9.83873L43.0553 9.86116L43.0523 9.88372V10.6195C43.0523 10.8668 43.1013 11.0446 43.1998 11.1533C43.298 11.2618 43.4565 11.316 43.6758 11.316C43.7549 11.316 43.8171 11.3442 43.8625 11.4003C43.9078 11.4565 43.9305 11.5238 43.9305 11.6021V12.3822C43.9305 12.4794 43.9032 12.5552 43.8483 12.6093C43.7937 12.6635 43.7172 12.6906 43.619 12.6906ZM45.1597 5.90754C45.1597 5.81032 45.1882 5.72899 45.2449 5.66342C45.3016 5.59812 45.3844 5.56548 45.4942 5.56548H46.4347C46.4761 5.56548 46.5187 5.57385 46.562 5.5906C46.6054 5.60735 46.6442 5.63176 46.6782 5.66342C46.7122 5.69535 46.7406 5.73183 46.7632 5.77285C46.7858 5.81429 46.7972 5.85914 46.7972 5.90754V12.3541C46.7972 12.5784 46.6782 12.6906 46.4403 12.6906H45.5C45.2731 12.6906 45.1597 12.5784 45.1597 12.3541V5.90754ZM45.1597 3.42325C45.1597 3.198 45.2711 3.08544 45.4942 3.08544H46.4457C46.5517 3.08544 46.6367 3.11383 46.7009 3.16989C46.7651 3.22638 46.7972 3.31083 46.7972 3.42325V4.26223C46.7972 4.34881 46.7668 4.43042 46.7064 4.50735C46.646 4.58428 46.561 4.62289 46.4515 4.62289H45.5C45.2731 4.62289 45.1597 4.50267 45.1597 4.26223V3.42325ZM53.3291 10.8223C53.3933 10.7813 53.4472 10.7561 53.4903 10.7466C53.5339 10.7373 53.5708 10.7325 53.6009 10.7325C53.665 10.7363 53.7199 10.7701 53.7652 10.8336L53.9013 11.0189L54.3035 11.5854C54.3223 11.6115 54.3376 11.6386 54.3489 11.6667C54.3603 11.6947 54.366 11.7201 54.366 11.7425C54.366 11.8024 54.3449 11.8558 54.3035 11.9025C54.2618 11.9492 54.2072 11.9969 54.1393 12.0454C53.8182 12.2773 53.4717 12.4643 53.0996 12.6065C52.7274 12.7486 52.3186 12.8198 51.8731 12.8198C51.5368 12.8198 51.2112 12.7757 50.8957 12.6878C50.5804 12.6001 50.2859 12.4766 50.012 12.3176C49.7381 12.1587 49.488 11.9678 49.2614 11.7454C49.0347 11.5228 48.8394 11.275 48.6751 11.0019C48.5106 10.729 48.3842 10.4353 48.2955 10.121C48.2066 9.8068 48.1623 9.47963 48.1623 9.13927C48.1623 8.79891 48.2066 8.47147 48.2955 8.15736C48.3842 7.84326 48.5106 7.5496 48.6751 7.27651C48.8394 7.00343 49.0347 6.75575 49.2614 6.53305C49.488 6.31078 49.7381 6.11988 50.012 5.96091C50.2859 5.80194 50.5804 5.67846 50.8957 5.5906C51.2112 5.5026 51.5368 5.45874 51.8731 5.45874C52.2923 5.45874 52.6888 5.52233 53.0626 5.64936C53.4367 5.77668 53.7689 5.94871 54.0599 6.16558L54.0541 6.16005C54.1069 6.21256 54.159 6.25827 54.2101 6.29758C54.2609 6.33676 54.2866 6.39751 54.2866 6.47997C54.2866 6.5024 54.2854 6.52851 54.2837 6.55832C54.2817 6.58841 54.2714 6.61651 54.2526 6.64249L53.788 7.34393C53.7122 7.45592 53.6292 7.51198 53.5384 7.51198C53.4744 7.51198 53.4027 7.48047 53.3233 7.41703C53.1307 7.25593 52.906 7.12507 52.6491 7.02401C52.3922 6.92309 52.1279 6.87271 51.856 6.87271C51.5615 6.87271 51.2849 6.93331 51.0262 7.05481C50.7673 7.17645 50.5397 7.34109 50.3432 7.54846C50.147 7.75625 49.9921 7.9974 49.8787 8.27247C49.7656 8.54726 49.709 8.83624 49.709 9.13927C49.709 9.44983 49.7656 9.74151 49.8787 10.0144C49.9921 10.2875 50.146 10.5251 50.3405 10.727C50.535 10.9291 50.7626 11.089 51.0234 11.2067C51.2839 11.3245 51.5615 11.3834 51.856 11.3834C52.177 11.3834 52.4547 11.3283 52.6888 11.2179C52.9229 11.1076 53.1364 10.9758 53.3291 10.8223ZM56.7337 9.12238C56.7337 9.42187 56.7868 9.70503 56.8925 9.97243C56.9981 10.2397 57.1454 10.4746 57.3345 10.6763C57.5232 10.8784 57.7451 11.0384 58.0001 11.156C58.255 11.274 58.5335 11.3329 58.8358 11.3329C59.1416 11.3329 59.4278 11.274 59.6941 11.156C59.9601 11.0384 60.1914 10.8784 60.3881 10.6763C60.5846 10.4746 60.7394 10.2397 60.8524 9.97243C60.9658 9.70503 61.0224 9.42187 61.0224 9.12238C61.0224 8.82687 60.9658 8.54556 60.8524 8.27815C60.7394 8.0106 60.5846 7.77598 60.3881 7.57387C60.1914 7.37203 59.9601 7.21122 59.6941 7.09143C59.4278 6.97163 59.1416 6.91188 58.8358 6.91188C58.5335 6.91188 58.255 6.97163 58.0001 7.09143C57.7451 7.21122 57.5232 7.37203 57.3345 7.57387C57.1454 7.77598 56.9981 8.0106 56.8925 8.27815C56.7868 8.54556 56.7337 8.82687 56.7337 9.12238ZM62.6259 12.3598C62.6259 12.4271 62.6117 12.4821 62.5833 12.5251C62.5551 12.5683 62.5183 12.6019 62.4728 12.6262C62.4276 12.6506 62.3755 12.6675 62.3169 12.6766C62.2584 12.6861 62.1971 12.6906 62.133 12.6906H61.4247C61.3039 12.6906 61.2198 12.659 61.1726 12.5953C61.1253 12.5317 61.0905 12.4513 61.0679 12.3541L61.0337 11.8772C60.9016 12.0081 60.7553 12.1307 60.5947 12.2445C60.4342 12.3587 60.2614 12.4579 60.0764 12.5419C59.8915 12.6262 59.6948 12.6915 59.487 12.7385C59.2795 12.785 59.0661 12.8086 58.8471 12.8086C58.5071 12.8086 58.1795 12.7643 57.864 12.6766C57.5487 12.5889 57.2532 12.4654 56.9776 12.3064C56.7018 12.1475 56.4515 11.9558 56.2269 11.7313C56.002 11.5069 55.8095 11.2582 55.649 10.9851C55.4885 10.7121 55.3638 10.4184 55.2752 10.1043C55.1862 9.78991 55.1419 9.46289 55.1419 9.12238C55.1419 8.78202 55.1862 8.45472 55.2752 8.14047C55.3638 7.82637 55.4885 7.53271 55.649 7.25976C55.8095 6.98668 56.002 6.73886 56.2269 6.51645C56.4515 6.29389 56.7018 6.10313 56.9776 5.94416C57.2532 5.7852 57.5487 5.66157 57.864 5.57385C58.1795 5.48585 58.5071 5.442 58.8471 5.442C59.0887 5.442 59.319 5.46712 59.5382 5.51765C59.7572 5.56818 59.9623 5.63914 60.1529 5.73083C60.3435 5.82267 60.5199 5.93295 60.6826 6.06197C60.845 6.19085 60.9923 6.33222 61.1245 6.48551L61.2039 5.88512C61.2228 5.8177 61.2407 5.76263 61.2578 5.71962C61.2747 5.67662 61.2953 5.64198 61.3198 5.61573C61.3445 5.58975 61.3757 5.57187 61.4134 5.56264C61.4512 5.55313 61.4983 5.54859 61.555 5.54859H62.1217C62.1819 5.54859 62.2425 5.55427 62.3029 5.56548C62.3633 5.57669 62.4179 5.59429 62.4671 5.61856C62.5161 5.64298 62.5551 5.67662 62.5833 5.71962C62.6117 5.76263 62.6259 5.816 62.6259 5.87958V12.3598ZM63.486 11.6078C63.486 11.5032 63.5 11.4134 63.5285 11.3386C63.5568 11.2638 63.6256 11.2263 63.7354 11.2263H64.6248C64.6701 11.2263 64.7163 11.2283 64.7634 11.232C64.8108 11.2358 64.8541 11.2459 64.8938 11.2628C64.9334 11.2795 64.9665 11.3041 64.993 11.3357C65.0192 11.3677 65.0327 11.4134 65.0327 11.4733V12.3036C65.0327 12.3558 65.0306 12.4046 65.0271 12.4496C65.0231 12.4942 65.0128 12.5355 64.9959 12.5728C64.9788 12.6102 64.9533 12.6394 64.9193 12.6598C64.8852 12.6806 64.8381 12.6906 64.7776 12.6906H63.8881C63.7559 12.6906 63.656 12.6766 63.588 12.6486C63.52 12.6205 63.486 12.5504 63.486 12.4384V11.6078ZM65.8383 9.21578C65.8383 9.1661 65.8527 9.12423 65.8817 9.09087C65.911 9.05738 65.9534 9.04049 66.0096 9.04049H66.4911C66.5126 9.04049 66.5341 9.04489 66.5565 9.05326C66.5789 9.06192 66.5985 9.07441 66.6161 9.09087C66.6335 9.1072 66.6481 9.12579 66.6597 9.14665C66.6713 9.16794 66.6769 9.19094 66.6769 9.21578V12.5182C66.6769 12.6333 66.6161 12.6906 66.4943 12.6906H66.0125C65.8962 12.6906 65.8383 12.6333 65.8383 12.5182V9.21578ZM65.8383 7.94318C65.8383 7.82765 65.8952 7.77002 66.0096 7.77002H66.497C66.5512 7.77002 66.5948 7.7845 66.6277 7.81345C66.6604 7.84227 66.6769 7.88527 66.6769 7.94318V8.37296C66.6769 8.41711 66.6616 8.45898 66.6306 8.49858C66.5996 8.53789 66.5562 8.55748 66.4999 8.55748H66.0125C65.8962 8.55748 65.8383 8.49602 65.8383 8.37296V7.94318ZM68.2298 10.8715C68.2298 11.0247 68.2569 11.1699 68.3111 11.3066C68.3655 11.4437 68.4406 11.5631 68.5375 11.6646C68.6342 11.7662 68.7488 11.8467 68.8815 11.9062C69.0139 11.9655 69.1585 11.9952 69.3153 11.9952C69.4682 11.9952 69.6098 11.9655 69.7404 11.9062C69.8711 11.8467 69.9838 11.7662 70.0786 11.6646C70.1734 11.5631 70.2472 11.4437 70.3006 11.3066C70.3538 11.1699 70.3805 11.0247 70.3805 10.8715C70.3805 10.72 70.3538 10.5754 70.3006 10.4373C70.2472 10.2992 70.1734 10.1784 70.0786 10.0736C69.9838 9.96931 69.8711 9.88585 69.7404 9.82369C69.6098 9.76138 69.4682 9.73015 69.3153 9.73015C69.1585 9.73015 69.0139 9.76138 68.8815 9.82369C68.7488 9.88585 68.6342 9.96931 68.5375 10.0736C68.4406 10.1784 68.3655 10.2992 68.3111 10.4373C68.2569 10.5754 68.2298 10.72 68.2298 10.8715ZM67.4114 10.8715C67.4114 10.697 67.4342 10.5288 67.4795 10.3669C67.5248 10.2051 67.5894 10.054 67.6726 9.9141C67.7555 9.77443 67.8553 9.64726 67.9712 9.53329C68.087 9.41945 68.2157 9.32166 68.3569 9.24033C68.4981 9.15872 68.6493 9.0957 68.8107 9.05042C68.9722 9.00557 69.1407 8.98286 69.3166 8.98286C69.4909 8.98286 69.6588 9.00557 69.8214 9.05042C69.9838 9.0957 70.135 9.15872 70.2751 9.24033C70.4153 9.32166 70.5434 9.41945 70.6595 9.53329C70.7755 9.64726 70.8749 9.77443 70.9582 9.9141C71.041 10.054 71.1057 10.2051 71.151 10.3669C71.1964 10.5288 71.2192 10.697 71.2192 10.8715C71.2192 11.0456 71.1964 11.2134 71.151 11.3742C71.1057 11.5353 71.041 11.6853 70.9582 11.8241C70.8749 11.9629 70.7755 12.09 70.6595 12.2048C70.5434 12.32 70.4153 12.4181 70.2751 12.4995C70.135 12.5809 69.9838 12.6442 69.8214 12.6891C69.6588 12.7344 69.4909 12.7568 69.3166 12.7568C69.1407 12.7568 68.9722 12.7344 68.8107 12.6891C68.6493 12.6442 68.4981 12.5809 68.3569 12.4995C68.2157 12.4181 68.087 12.32 67.9712 12.2048C67.8553 12.09 67.7555 11.9629 67.6726 11.8241C67.5894 11.6853 67.5248 11.5353 67.4795 11.3742C67.4342 11.2134 67.4114 11.0456 67.4114 10.8715Z" fill="#434396"/>
<path fill-rule="evenodd" clip-rule="evenodd" d="M18.7102 18.218C18.5137 18.218 18.3377 18.185 18.1825 18.1193C18.0275 18.0539 17.8948 17.9633 17.7847 17.8483C17.6743 17.7336 17.5902 17.5986 17.5324 17.4436C17.4743 17.2889 17.4453 17.1234 17.4453 16.9474C17.4453 16.7786 17.4755 16.6167 17.5359 16.4618C17.5961 16.3068 17.6808 16.1708 17.7899 16.0536C17.8988 15.9361 18.0299 15.843 18.1825 15.7737C18.3354 15.7045 18.5053 15.67 18.6926 15.67C18.7969 15.67 18.8921 15.6769 18.9787 15.6912C19.0651 15.7051 19.1457 15.7261 19.2203 15.7543C19.295 15.7826 19.3648 15.8173 19.4301 15.8582C19.4951 15.8991 19.5584 15.9456 19.6201 15.9971L19.4389 16.2084C19.3915 16.1662 19.3418 16.128 19.2895 16.0939C19.2375 16.0601 19.1813 16.0306 19.1207 16.0059C19.0603 15.9814 18.994 15.962 18.9219 15.9479C18.8495 15.934 18.7696 15.9267 18.6819 15.9267C18.5446 15.9267 18.4177 15.9537 18.3017 16.0079C18.1855 16.062 18.0861 16.1349 18.0032 16.2267C17.9202 16.3183 17.8551 16.4259 17.8077 16.549C17.7603 16.6724 17.7366 16.8035 17.7366 16.9422C17.7366 17.0903 17.7597 17.2272 17.8059 17.3531C17.8522 17.4787 17.9179 17.5872 18.0032 17.679C18.0886 17.7706 18.1916 17.8424 18.3124 17.894C18.4332 17.9457 18.5693 17.9716 18.7209 17.9716C18.8631 17.9716 18.997 17.9475 19.1226 17.8991C19.248 17.851 19.3535 17.7926 19.4389 17.7243V17.1094H18.6819V16.8629H19.709V17.8424C19.5928 17.9453 19.45 18.0337 19.2807 18.1073C19.1113 18.181 18.9212 18.218 18.7102 18.218ZM20.5689 18.1758V15.6064H20.8427V18.1758H20.5689ZM22.5661 18.218C22.4287 18.218 22.3018 18.1926 22.1858 18.1422C22.0698 18.0919 21.9692 18.0238 21.8838 17.9382C21.7984 17.8526 21.7322 17.7521 21.6848 17.6372C21.6374 17.5224 21.6137 17.4002 21.6137 17.2712C21.6137 17.1423 21.6374 17.0195 21.6848 16.9034C21.7322 16.7873 21.7984 16.6859 21.8838 16.5991C21.9692 16.5123 22.0705 16.4437 22.1877 16.393C22.305 16.3426 22.4333 16.3174 22.5732 16.3174C22.7106 16.3174 22.8379 16.3426 22.9551 16.393C23.0726 16.4437 23.1739 16.5116 23.2591 16.5972C23.3444 16.683 23.4107 16.7831 23.4581 16.8982C23.5055 17.0133 23.5292 17.1352 23.5292 17.2642C23.5292 17.3934 23.5049 17.5159 23.4562 17.6318C23.4078 17.7481 23.3409 17.8495 23.2555 17.9363C23.1703 18.0232 23.0684 18.0919 22.9499 18.1422C22.8314 18.1926 22.7035 18.218 22.5661 18.218ZM22.5661 16.5567C22.4667 16.5567 22.3754 16.5748 22.2926 16.6111C22.2095 16.6475 22.1391 16.6978 22.081 16.7621C22.0229 16.8265 21.9773 16.9015 21.9442 16.9869C21.9111 17.0723 21.8945 17.1641 21.8945 17.2625C21.8945 17.3608 21.9117 17.4532 21.9459 17.5398C21.9803 17.6264 22.0277 17.7012 22.0881 17.7646C22.1485 17.8277 22.2202 17.878 22.3031 17.9156C22.3859 17.9529 22.4761 17.9716 22.5732 17.9716C22.6728 17.9716 22.7639 17.9534 22.8469 17.9172C22.9298 17.8811 23.0009 17.8312 23.06 17.7681C23.1192 17.7047 23.1655 17.6304 23.1986 17.545C23.2318 17.4596 23.2484 17.3678 23.2484 17.2694C23.2484 17.1713 23.2312 17.0787 23.197 16.9921C23.1626 16.9055 23.1145 16.8301 23.0531 16.7657C22.9914 16.7015 22.9191 16.6504 22.8362 16.613C22.7532 16.5754 22.6632 16.5567 22.5661 16.5567ZM25.2493 18.2145C25.1639 18.2145 25.0857 18.2039 25.0148 18.1829C24.9437 18.1617 24.8795 18.1334 24.8229 18.0981C24.766 18.063 24.7144 18.0221 24.6681 17.9752C24.6219 17.9282 24.581 17.879 24.5456 17.8273V18.1758H24.2719V15.6064H24.5456V16.7221C24.5833 16.6683 24.6255 16.6167 24.6716 16.5673C24.718 16.5181 24.7694 16.4753 24.8264 16.4389C24.8833 16.4024 24.9464 16.3733 25.0165 16.3509C25.0863 16.3287 25.1639 16.3174 25.2493 16.3174C25.3581 16.3174 25.4653 16.3386 25.5708 16.3808C25.6763 16.423 25.7705 16.4846 25.8533 16.5656C25.9364 16.6464 26.0026 16.7457 26.0524 16.8629C26.1021 16.9804 26.127 17.114 26.127 17.2642C26.127 17.4144 26.1021 17.5481 26.0524 17.6653C26.0026 17.7828 25.937 17.8817 25.855 17.9627C25.7734 18.0437 25.6799 18.106 25.5744 18.1494C25.4689 18.1926 25.3604 18.2145 25.2493 18.2145ZM25.1993 16.564C25.1142 16.564 25.0318 16.5808 24.9525 16.6147C24.873 16.6485 24.8019 16.6957 24.7392 16.7563C24.6765 16.817 24.6265 16.8907 24.5901 16.9771C24.5531 17.0635 24.5349 17.1591 24.5349 17.2642C24.5349 17.3693 24.5531 17.4654 24.5901 17.5531C24.6265 17.6405 24.6765 17.7149 24.7392 17.7756C24.8019 17.8362 24.873 17.8834 24.9525 17.9172C25.0318 17.9511 25.1142 17.9679 25.1993 17.9679C25.287 17.9679 25.3705 17.9523 25.45 17.9208C25.5293 17.8894 25.5981 17.8439 25.6562 17.7843C25.7143 17.7249 25.7604 17.6511 25.7948 17.5635C25.829 17.476 25.8462 17.3776 25.8462 17.2677C25.8462 17.1603 25.829 17.0635 25.7948 16.9771C25.7604 16.8907 25.7136 16.8166 25.6543 16.7549C25.5951 16.693 25.5265 16.6454 25.4481 16.6128C25.3701 16.5802 25.287 16.564 25.1993 16.564ZM27.4276 18.2145C27.3422 18.2145 27.2588 18.2026 27.1772 18.1791C27.0954 18.1559 27.0218 18.1199 26.9567 18.0718C26.8915 18.0238 26.8395 17.9646 26.8005 17.8942C26.7613 17.8237 26.7418 17.7407 26.7418 17.6443C26.7418 17.5481 26.7606 17.4632 26.7986 17.389C26.8366 17.3153 26.8903 17.2536 26.9603 17.2044C27.0302 17.1549 27.113 17.1175 27.2091 17.0918C27.3049 17.066 27.411 17.0529 27.5272 17.0529C27.6455 17.0529 27.7487 17.06 27.8364 17.0741C27.9238 17.0882 28.0092 17.1069 28.0921 17.1304V17.0673C28.0921 16.903 28.0442 16.7792 27.9482 16.6957C27.8523 16.6126 27.7179 16.5708 27.5449 16.5708C27.436 16.5708 27.337 16.5831 27.2481 16.6078C27.1594 16.6325 27.0723 16.6647 26.9869 16.7046L26.9051 16.4828C27.0071 16.436 27.1101 16.3991 27.2143 16.3721C27.3185 16.3451 27.4383 16.3316 27.5734 16.3316C27.8244 16.3316 28.0176 16.393 28.1527 16.5162C28.2877 16.6396 28.3551 16.822 28.3551 17.0635V18.1758H28.0921V17.9012C28.0283 17.9835 27.9423 18.056 27.8345 18.1193C27.7267 18.1829 27.591 18.2145 27.4276 18.2145ZM27.5574 17.2536C27.385 17.2536 27.2527 17.2876 27.1606 17.3556C27.0685 17.4237 27.0224 17.5165 27.0224 17.6337C27.0224 17.6923 27.0348 17.744 27.0597 17.7884C27.0845 17.8331 27.118 17.8713 27.1606 17.9029C27.2032 17.9345 27.2521 17.9588 27.3076 17.9752C27.363 17.9916 27.4215 17.9997 27.483 17.9997C27.5679 17.9997 27.6476 17.9874 27.7221 17.9627C27.7963 17.9382 27.8613 17.9041 27.9169 17.8607C27.9723 17.8173 28.0161 17.7658 28.0478 17.706C28.0797 17.6462 28.0956 17.5797 28.0956 17.507V17.3311C28.0273 17.3122 27.9486 17.2947 27.8601 17.2783C27.7716 17.2619 27.6707 17.2536 27.5574 17.2536ZM29.2114 18.1758V15.6064H29.4851V18.1758H29.2114ZM32.0119 18.1758H31.731V15.7122H32.6623C32.8019 15.7122 32.9293 15.7302 33.0442 15.7668C33.1591 15.8031 33.2573 15.8547 33.3391 15.9215C33.4209 15.9884 33.4836 16.0707 33.5276 16.1679C33.5713 16.2653 33.5933 16.375 33.5933 16.4969C33.5933 16.6307 33.5671 16.748 33.5151 16.849C33.4628 16.9497 33.3924 17.0342 33.3036 17.1022C33.2147 17.1705 33.1111 17.2214 32.9926 17.2555C32.8741 17.2895 32.7487 17.3063 32.6159 17.3063H32.0119V18.1758ZM32.0119 15.9689V17.0529H32.6283C32.7304 17.0529 32.8238 17.0403 32.9081 17.0143C32.9924 16.9885 33.0647 16.9516 33.1254 16.9034C33.186 16.8554 33.2323 16.7979 33.2644 16.731C33.2965 16.6641 33.3125 16.5897 33.3125 16.5075C33.3125 16.3293 33.2514 16.1949 33.1289 16.1045C33.0067 16.0142 32.8445 15.9689 32.6425 15.9689H32.0119ZM35.0965 18.218C34.9709 18.218 34.8524 18.1949 34.7412 18.1494C34.6298 18.1035 34.5323 18.0389 34.449 17.9559C34.3653 17.8726 34.2991 17.7722 34.2498 17.6549C34.2007 17.5375 34.1762 17.4085 34.1762 17.2677C34.1762 17.1364 34.198 17.0126 34.2418 16.8963C34.2856 16.7804 34.3467 16.6793 34.4249 16.5937C34.5029 16.5081 34.5961 16.4406 34.7039 16.3914C34.8117 16.3419 34.9295 16.3174 35.0575 16.3174C35.1923 16.3174 35.3134 16.3426 35.4199 16.393C35.5265 16.4437 35.6164 16.5123 35.6898 16.5991C35.7635 16.6859 35.819 16.7879 35.857 16.9053C35.895 17.0226 35.9138 17.1481 35.9138 17.2818V17.3205L35.9103 17.3662H34.4568C34.4662 17.4648 34.4899 17.5523 34.5279 17.6285C34.5658 17.7047 34.6143 17.7691 34.6737 17.8219C34.7328 17.8748 34.7991 17.9147 34.8725 17.9415C34.9461 17.9685 35.0231 17.9822 35.1036 17.9822C35.2316 17.9822 35.341 17.9588 35.4323 17.9118C35.5235 17.8647 35.607 17.8028 35.6829 17.7253L35.8534 17.8765C35.7609 17.9797 35.6556 18.0626 35.5371 18.1245C35.4186 18.1868 35.2718 18.218 35.0965 18.218ZM35.0503 16.5463C34.9702 16.5463 34.896 16.5621 34.8278 16.5937C34.7594 16.6255 34.6995 16.6689 34.6476 16.7239C34.5958 16.7792 34.5535 16.8442 34.5203 16.9194C34.4874 16.9944 34.4662 17.0764 34.4568 17.1655H35.633C35.6261 17.0837 35.6089 17.005 35.5818 16.9298C35.5548 16.8548 35.5172 16.7891 35.4688 16.7326C35.4205 16.6766 35.3618 16.6313 35.2924 16.5972C35.2227 16.5634 35.1422 16.5463 35.0503 16.5463ZM37.4491 18.218C37.3235 18.218 37.205 18.1949 37.0936 18.1494C36.9825 18.1035 36.8849 18.0389 36.8015 17.9559C36.718 17.8726 36.6517 17.7722 36.6024 17.6549C36.5533 17.5375 36.5286 17.4085 36.5286 17.2677C36.5286 17.1364 36.5506 17.0126 36.5944 16.8963C36.6383 16.7804 36.6993 16.6793 36.7775 16.5937C36.8556 16.5081 36.9487 16.4406 37.0565 16.3914C37.1641 16.3419 37.282 16.3174 37.4101 16.3174C37.545 16.3174 37.6658 16.3426 37.7725 16.393C37.8791 16.4437 37.9691 16.5123 38.0425 16.5991C38.1159 16.6859 38.1717 16.7879 38.2096 16.9053C38.2474 17.0226 38.2665 17.1481 38.2665 17.2818V17.3205L38.2629 17.3662H36.8094C36.8189 17.4648 36.8426 17.5523 36.8805 17.6285C36.9183 17.7047 36.9669 17.7691 37.0263 17.8219C37.0854 17.8748 37.1517 17.9147 37.2251 17.9415C37.2985 17.9685 37.3757 17.9822 37.4563 17.9822C37.5842 17.9822 37.6937 17.9588 37.7849 17.9118C37.8762 17.8647 37.9596 17.8028 38.0356 17.7253L38.2061 17.8765C38.1136 17.9797 38.0083 18.0626 37.8898 18.1245C37.7713 18.1868 37.6245 18.218 37.4491 18.218ZM37.403 16.5463C37.3229 16.5463 37.2486 16.5621 37.1802 16.5937C37.1121 16.6255 37.0521 16.6689 37.0003 16.7239C36.9485 16.7792 36.9059 16.8442 36.873 16.9194C36.84 16.9944 36.8189 17.0764 36.8094 17.1655H37.9856C37.9787 17.0837 37.9615 17.005 37.9345 16.9298C37.9074 16.8548 37.8699 16.7891 37.8214 16.7326C37.7732 16.6766 37.7142 16.6313 37.6448 16.5972C37.5754 16.5634 37.4946 16.5463 37.403 16.5463ZM39.2686 18.1758H38.9949V16.3563H39.2686V16.8313C39.3017 16.7561 39.3433 16.6872 39.393 16.6236C39.4429 16.5602 39.4997 16.5056 39.5635 16.4601C39.6275 16.4142 39.6973 16.3797 39.7732 16.3563C39.842 16.3349 39.9154 16.3243 39.9939 16.3243C40.0021 16.3243 40.0102 16.3243 40.0184 16.3245V16.6167H39.9972C39.8976 16.6167 39.8034 16.6344 39.7145 16.6695C39.6258 16.7046 39.5482 16.7574 39.4819 16.8278C39.4154 16.8982 39.3634 16.9856 39.3254 17.0899C39.2875 17.1944 39.2686 17.3147 39.2686 17.4507V18.1758ZM40.6084 17.2606V16.9757H41.5963V17.2606H40.6084ZM42.9965 18.2074C42.9229 18.2074 42.8543 18.198 42.7903 18.1791C42.7264 18.1604 42.6712 18.1305 42.625 18.0894C42.5789 18.0485 42.5426 17.9949 42.5166 17.9293C42.4906 17.8636 42.4776 17.7851 42.4776 17.6935V16.5956H42.2217V16.3563H42.4776V15.8071H42.7513V16.3563H43.334V16.5956H42.7513V17.6582C42.7513 17.771 42.7796 17.8495 42.8365 17.8942C42.8933 17.9388 42.968 17.961 43.0605 17.961C43.1079 17.961 43.1521 17.9565 43.1937 17.9469C43.2352 17.9376 43.2794 17.9212 43.327 17.8977V18.1299C43.2794 18.1559 43.2291 18.1752 43.1758 18.1881C43.1226 18.201 43.0628 18.2074 42.9965 18.2074ZM44.8516 18.218C44.714 18.218 44.5872 18.1926 44.4712 18.1422C44.3552 18.0919 44.2545 18.0238 44.1691 17.9382C44.0838 17.8526 44.0175 17.7521 43.9701 17.6372C43.9227 17.5224 43.899 17.4002 43.899 17.2712C43.899 17.1423 43.9227 17.0195 43.9701 16.9034C44.0175 16.7873 44.0838 16.6859 44.1691 16.5991C44.2545 16.5123 44.3556 16.4437 44.4728 16.393C44.5903 16.3426 44.7187 16.3174 44.8586 16.3174C44.9957 16.3174 45.1232 16.3426 45.2407 16.393C45.3579 16.4437 45.459 16.5116 45.5442 16.5972C45.63 16.683 45.6958 16.7831 45.7434 16.8982C45.7908 17.0133 45.8145 17.1352 45.8145 17.2642C45.8145 17.3934 45.79 17.5159 45.7418 17.6318C45.6929 17.7481 45.6262 17.8495 45.541 17.9363C45.4555 18.0232 45.3538 18.0919 45.2355 18.1422C45.1165 18.1926 44.9888 18.218 44.8516 18.218ZM44.8516 16.5567C44.752 16.5567 44.6608 16.5748 44.5777 16.6111C44.4949 16.6475 44.4244 16.6978 44.3663 16.7621C44.3082 16.8265 44.2627 16.9015 44.2295 16.9869C44.1964 17.0723 44.1798 17.1641 44.1798 17.2625C44.1798 17.3608 44.197 17.4532 44.2312 17.5398C44.2656 17.6264 44.313 17.7012 44.3734 17.7646C44.4338 17.8277 44.5056 17.878 44.5884 17.9156C44.6713 17.9529 44.7614 17.9716 44.8586 17.9716C44.958 17.9716 45.049 17.9534 45.1323 17.9172C45.2149 17.8811 45.2862 17.8312 45.3456 17.7681C45.4045 17.7047 45.4509 17.6304 45.484 17.545C45.5171 17.4596 45.5337 17.3678 45.5337 17.2694C45.5337 17.1713 45.5165 17.0787 45.4825 16.9921C45.4479 16.9055 45.3997 16.8301 45.3382 16.7657C45.2768 16.7015 45.2042 16.6504 45.1216 16.613C45.0383 16.5754 44.9487 16.5567 44.8516 16.5567ZM46.4828 17.2606V16.9757H47.4706V17.2606H46.4828ZM49.4055 18.1758H48.3023V15.7122H49.3591C49.4822 15.7122 49.5932 15.7267 49.6926 15.7562C49.7918 15.7855 49.877 15.8266 49.9479 15.8794C50.0188 15.9321 50.0733 15.9965 50.1112 16.0728C50.1488 16.1492 50.1679 16.2344 50.1679 16.328C50.1679 16.4103 50.1568 16.4817 50.1341 16.5426C50.1119 16.6037 50.0815 16.6577 50.0439 16.7046C50.006 16.7516 49.964 16.791 49.9179 16.8226C49.8717 16.8542 49.8241 16.8805 49.7742 16.9017C49.8476 16.9227 49.9168 16.9503 49.9818 16.9844C50.0469 17.0185 50.1031 17.0588 50.1503 17.1057C50.1977 17.1528 50.2356 17.2091 50.2637 17.2748C50.2923 17.3404 50.3063 17.4154 50.3063 17.5001C50.3063 17.6054 50.2851 17.7006 50.2428 17.7851C50.2002 17.8697 50.1391 17.9407 50.0601 17.998C49.9808 18.0553 49.8856 18.0994 49.7742 18.1299C49.6632 18.1604 49.5401 18.1758 49.4055 18.1758ZM48.5829 17.0567V17.9293H49.416C49.6051 17.9293 49.7541 17.8904 49.8625 17.8127C49.9714 17.7348 50.0259 17.6254 50.0259 17.4839C50.0259 17.3475 49.9701 17.242 49.8591 17.1678C49.748 17.0939 49.5838 17.0567 49.3663 17.0567H48.5829ZM48.5829 15.9585V16.8101H49.3165C49.4843 16.8101 49.6213 16.7725 49.7276 16.6971C49.834 16.6217 49.887 16.511 49.887 16.365C49.887 16.24 49.8398 16.1411 49.7455 16.068C49.6507 15.9949 49.515 15.9585 49.3377 15.9585H48.5829ZM51.7457 18.2145C51.6342 18.2145 51.5354 18.1968 51.449 18.1617C51.3625 18.1264 51.2889 18.0765 51.2285 18.0119C51.1681 17.9475 51.122 17.8707 51.0901 17.7816C51.0578 17.6923 51.0419 17.5938 51.0419 17.4858V16.3563H51.3156V17.4191C51.3156 17.5878 51.3594 17.7218 51.4471 17.8204C51.5347 17.9187 51.6602 17.9679 51.8238 17.9679C51.902 17.9679 51.975 17.9546 52.0423 17.9276C52.1098 17.9006 52.1677 17.862 52.2166 17.8115C52.2651 17.761 52.3036 17.7006 52.3322 17.6304C52.3603 17.56 52.3747 17.4825 52.3747 17.3979V16.3563H52.6447V18.1758H52.3747V17.8589C52.3131 17.9575 52.2325 18.0414 52.1329 18.1106C52.0335 18.1798 51.9045 18.2145 51.7457 18.2145ZM54.116 18.2109C53.9832 18.2109 53.8494 18.1868 53.7143 18.1388C53.5793 18.0907 53.4597 18.0256 53.3555 17.9434L53.4941 17.75C53.5935 17.825 53.6969 17.8823 53.805 17.9224C53.9128 17.9623 54.021 17.9822 54.13 17.9822C54.2414 17.9822 54.3327 17.9565 54.4038 17.9048C54.4749 17.8532 54.5103 17.7828 54.5103 17.6935V17.6865C54.5103 17.642 54.4979 17.6034 54.4732 17.5703C54.4482 17.5375 54.4142 17.5089 54.3717 17.4841C54.3291 17.4594 54.28 17.4378 54.2242 17.4191C54.1686 17.4002 54.1112 17.3826 54.052 17.3662C53.9809 17.3452 53.9092 17.3223 53.837 17.2976C53.7647 17.2731 53.6995 17.2417 53.6416 17.2044C53.5835 17.1668 53.5361 17.12 53.4994 17.0635C53.4624 17.0072 53.4442 16.937 53.4442 16.8523V16.8454C53.4442 16.768 53.4597 16.6969 53.4903 16.6325C53.5214 16.5679 53.5646 16.5129 53.6202 16.467C53.6758 16.4213 53.742 16.386 53.8192 16.3615C53.8962 16.3368 53.9797 16.3245 54.0696 16.3245C54.1835 16.3245 54.2985 16.3426 54.4142 16.3791C54.5304 16.4155 54.6359 16.4641 54.7307 16.5251L54.6062 16.7293C54.521 16.6753 54.4314 16.6325 54.3379 16.6008C54.2444 16.5692 54.1525 16.5532 54.0627 16.5532C53.9537 16.5532 53.8672 16.5785 53.8031 16.6288C53.7393 16.6793 53.7072 16.7422 53.7072 16.8172V16.8242C53.7072 16.8666 53.7202 16.9034 53.7464 16.9352C53.7724 16.9667 53.8073 16.9944 53.8511 17.0178C53.8949 17.0413 53.9453 17.0625 54.0023 17.0812C54.0589 17.1001 54.1181 17.1188 54.1798 17.1375C54.2509 17.1587 54.3213 17.1819 54.3914 17.2079C54.4612 17.2336 54.5246 17.2667 54.5814 17.3063C54.6385 17.3462 54.684 17.3944 54.7184 17.4507C54.7526 17.507 54.77 17.5764 54.77 17.6582V17.6653C54.77 17.7521 54.7526 17.8291 54.7184 17.896C54.684 17.9627 54.6378 18.0196 54.5797 18.0666C54.5216 18.1137 54.4528 18.1494 54.3736 18.1739C54.2941 18.1987 54.2083 18.2109 54.116 18.2109ZM55.5669 18.1758V16.3563H55.8572V18.1758H55.5669ZM55.5338 15.9585V15.6592H55.8241V15.9585H55.5338ZM58.3166 18.1758H58.0429V17.1128C58.0429 16.9439 57.9989 16.8101 57.9114 16.7117C57.8237 16.613 57.6983 16.564 57.5345 16.564C57.4565 16.564 57.3837 16.5773 57.316 16.6043C57.2486 16.6313 57.1899 16.6699 57.1402 16.7206C57.0905 16.7709 57.0519 16.8313 57.0249 16.9017C56.9976 16.9721 56.9837 17.0496 56.9837 17.1339V18.1758H56.7103V16.3563H56.9837V16.6728C57.0454 16.5744 57.126 16.4905 57.2256 16.4213C57.325 16.3521 57.4542 16.3174 57.6128 16.3174C57.7243 16.3174 57.8231 16.3351 57.9095 16.3702C57.9962 16.4055 58.0696 16.4554 58.13 16.52C58.1904 16.5843 58.2365 16.6612 58.2684 16.7503C58.3005 16.8396 58.3166 16.9381 58.3166 17.0461V18.1758ZM59.9547 18.218C59.8291 18.218 59.7106 18.1949 59.5994 18.1494C59.488 18.1035 59.3905 18.0389 59.307 17.9559C59.2235 17.8726 59.1573 17.7722 59.108 17.6549C59.0589 17.5375 59.0344 17.4085 59.0344 17.2677C59.0344 17.1364 59.0562 17.0126 59.1 16.8963C59.1438 16.7804 59.2049 16.6793 59.2829 16.5937C59.3611 16.5081 59.4543 16.4406 59.5619 16.3914C59.6699 16.3419 59.7875 16.3174 59.9157 16.3174C60.0505 16.3174 60.1716 16.3426 60.2781 16.393C60.3847 16.4437 60.4748 16.5123 60.548 16.5991C60.6217 16.6859 60.6775 16.7879 60.7152 16.9053C60.7532 17.0226 60.772 17.1481 60.772 17.2818V17.3205L60.7685 17.3662H59.3152C59.3246 17.4648 59.3481 17.5523 59.3861 17.6285C59.4241 17.7047 59.4727 17.7691 59.5319 17.8219C59.591 17.8748 59.6573 17.9147 59.7309 17.9415C59.8043 17.9685 59.8813 17.9822 59.9618 17.9822C60.0898 17.9822 60.1992 17.9588 60.2905 17.9118C60.3817 17.8647 60.4652 17.8028 60.5409 17.7253L60.7116 17.8765C60.6191 17.9797 60.5136 18.0626 60.3954 18.1245C60.2769 18.1868 60.13 18.218 59.9547 18.218ZM59.9086 16.5463C59.8284 16.5463 59.7542 16.5621 59.6858 16.5937C59.6176 16.6255 59.5577 16.6689 59.5059 16.7239C59.454 16.7792 59.4117 16.8442 59.3785 16.9194C59.3456 16.9944 59.3244 17.0764 59.3152 17.1655H60.4914C60.4843 17.0837 60.4673 17.005 60.44 16.9298C60.413 16.8548 60.3752 16.7891 60.3272 16.7326C60.2787 16.6766 60.2198 16.6313 60.1504 16.5972C60.081 16.5634 60.0002 16.5463 59.9086 16.5463ZM62.1083 18.2109C61.9755 18.2109 61.8417 18.1868 61.7066 18.1388C61.5716 18.0907 61.452 18.0256 61.3478 17.9434L61.4864 17.75C61.586 17.825 61.6894 17.8823 61.7975 17.9224C61.9051 17.9623 62.0135 17.9822 62.1223 17.9822C62.2339 17.9822 62.325 17.9565 62.3961 17.9048C62.4672 17.8532 62.5028 17.7828 62.5028 17.6935V17.6865C62.5028 17.642 62.4902 17.6034 62.4655 17.5703C62.4405 17.5375 62.4067 17.5089 62.3642 17.4841C62.3216 17.4594 62.2723 17.4378 62.2167 17.4191C62.1609 17.4002 62.1037 17.3826 62.0443 17.3662C61.9732 17.3452 61.9017 17.3223 61.8293 17.2976C61.757 17.2731 61.692 17.2417 61.6339 17.2044C61.5758 17.1668 61.5284 17.12 61.4919 17.0635C61.455 17.0072 61.4367 16.937 61.4367 16.8523V16.8454C61.4367 16.768 61.452 16.6969 61.4828 16.6325C61.5137 16.5679 61.5569 16.5129 61.6127 16.467C61.668 16.4213 61.7345 16.386 61.8115 16.3615C61.8885 16.3368 61.9722 16.3245 62.0619 16.3245C62.1758 16.3245 62.2908 16.3426 62.4067 16.3791C62.5229 16.4155 62.6284 16.4641 62.7232 16.5251L62.5987 16.7293C62.5135 16.6753 62.4239 16.6325 62.3304 16.6008C62.2366 16.5692 62.145 16.5532 62.055 16.5532C61.9462 16.5532 61.8595 16.5785 61.7956 16.6288C61.7316 16.6793 61.6997 16.7422 61.6997 16.8172V16.8242C61.6997 16.8666 61.7125 16.9034 61.7387 16.9352C61.7647 16.9667 61.7996 16.9944 61.8434 17.0178C61.8872 17.0413 61.9378 17.0625 61.9946 17.0812C62.0512 17.1001 62.1106 17.1188 62.1723 17.1375C62.2434 17.1587 62.3136 17.1819 62.3837 17.2079C62.4535 17.2336 62.5169 17.2667 62.5739 17.3063C62.6307 17.3462 62.6763 17.3944 62.7107 17.4507C62.7448 17.507 62.7623 17.5764 62.7623 17.6582V17.6653C62.7623 17.7521 62.7448 17.8291 62.7107 17.896C62.6763 17.9627 62.6301 18.0196 62.572 18.0666C62.5141 18.1137 62.4451 18.1494 62.3658 18.1739C62.2866 18.1987 62.2006 18.2109 62.1083 18.2109ZM64.0912 18.2109C63.9584 18.2109 63.8248 18.1868 63.6895 18.1388C63.5544 18.0907 63.4349 18.0256 63.3306 17.9434L63.4693 17.75C63.5689 17.825 63.6723 17.8823 63.7803 17.9224C63.8879 17.9623 63.9964 17.9822 64.1054 17.9822C64.2168 17.9822 64.3078 17.9565 64.3789 17.9048C64.45 17.8532 64.4857 17.7828 64.4857 17.6935V17.6865C64.4857 17.642 64.4731 17.6034 64.4483 17.5703C64.4234 17.5375 64.3896 17.5089 64.347 17.4841C64.3045 17.4594 64.2552 17.4378 64.1996 17.4191C64.1438 17.4002 64.0865 17.3826 64.0272 17.3662C63.9563 17.3452 63.8846 17.3223 63.8122 17.2976C63.7398 17.2731 63.6748 17.2417 63.6167 17.2044C63.5586 17.1668 63.5112 17.12 63.4747 17.0635C63.4378 17.0072 63.4196 16.937 63.4196 16.8523V16.8454C63.4196 16.768 63.4349 16.6969 63.4657 16.6325C63.4965 16.5679 63.5398 16.5129 63.5955 16.467C63.6511 16.4213 63.7174 16.386 63.7944 16.3615C63.8714 16.3368 63.955 16.3245 64.0448 16.3245C64.1587 16.3245 64.2736 16.3426 64.3896 16.3791C64.5058 16.4155 64.6113 16.4641 64.7061 16.5251L64.5815 16.7293C64.4964 16.6753 64.4068 16.6325 64.3133 16.6008C64.2195 16.5692 64.1279 16.5532 64.0379 16.5532C63.929 16.5532 63.8424 16.5785 63.7784 16.6288C63.7145 16.6793 63.6826 16.7422 63.6826 16.8172V16.8242C63.6826 16.8666 63.6954 16.9034 63.7216 16.9352C63.7476 16.9667 63.7824 16.9944 63.8263 17.0178C63.8701 17.0413 63.9206 17.0625 63.9775 17.0812C64.0343 17.1001 64.0935 17.1188 64.1551 17.1375C64.2262 17.1587 64.2967 17.1819 64.3668 17.2079C64.4366 17.2336 64.4997 17.2667 64.5568 17.3063C64.6136 17.3462 64.6591 17.3944 64.6935 17.4507C64.7277 17.507 64.7451 17.5764 64.7451 17.6582V17.6653C64.7451 17.7521 64.7277 17.8291 64.6935 17.896C64.6591 17.9627 64.613 18.0196 64.5549 18.0666C64.497 18.1137 64.428 18.1494 64.3489 18.1739C64.2694 18.1987 64.1837 18.2109 64.0912 18.2109ZM67.1437 18.1758H66.8631V15.7122H67.7939C67.9338 15.7122 68.0611 15.7302 68.1762 15.7668C68.2912 15.8031 68.3893 15.8547 68.4711 15.9215C68.5529 15.9884 68.6154 16.0707 68.6593 16.1679C68.7031 16.2653 68.7251 16.375 68.7251 16.4969C68.7251 16.6307 68.6991 16.748 68.6471 16.849C68.5949 16.9497 68.5244 17.0342 68.4355 17.1022C68.3465 17.1705 68.2429 17.2214 68.1246 17.2555C68.0061 17.2895 67.8805 17.3063 67.7479 17.3063H67.1437V18.1758ZM67.1437 15.9689V17.0529H67.7601C67.8625 17.0529 67.9556 17.0403 68.0399 17.0143C68.1242 16.9885 68.1966 16.9516 68.2572 16.9034C68.3178 16.8554 68.3642 16.7979 68.3962 16.731C68.4283 16.6641 68.4445 16.5897 68.4445 16.5075C68.4445 16.3293 68.3832 16.1949 68.261 16.1045C68.1385 16.0142 67.9766 15.9689 67.7746 15.9689H67.1437ZM69.7132 18.1758H69.4395V16.3563H69.7132V16.8313C69.7463 16.7561 69.7877 16.6872 69.8376 16.6236C69.8873 16.5602 69.9441 16.5056 70.0081 16.4601C70.0723 16.4142 70.1421 16.3797 70.2178 16.3563C70.2864 16.3349 70.36 16.3243 70.4385 16.3243C70.4467 16.3243 70.4548 16.3243 70.463 16.3245V16.6167H70.4416C70.3422 16.6167 70.248 16.6344 70.1593 16.6695C70.0704 16.7046 69.9928 16.7574 69.9263 16.8278C69.86 16.8982 69.808 16.9856 69.77 17.0899C69.7323 17.1944 69.7132 17.3147 69.7132 17.4507V18.1758ZM71.8882 18.218C71.7508 18.218 71.6239 18.1926 71.5077 18.1422C71.3917 18.0919 71.2911 18.0238 71.2059 17.9382C71.1205 17.8526 71.0541 17.7521 71.0069 17.6372C70.9593 17.5224 70.9358 17.4002 70.9358 17.2712C70.9358 17.1423 70.9593 17.0195 71.0069 16.9034C71.0541 16.7873 71.1205 16.6859 71.2059 16.5991C71.2911 16.5123 71.3924 16.4437 71.5096 16.393C71.6271 16.3426 71.7554 16.3174 71.8953 16.3174C72.0325 16.3174 72.16 16.3426 72.2773 16.393C72.3945 16.4437 72.4958 16.5116 72.5812 16.5972C72.6665 16.683 72.7326 16.7831 72.7802 16.8982C72.8274 17.0133 72.8513 17.1352 72.8513 17.2642C72.8513 17.3934 72.8268 17.5159 72.7783 17.6318C72.7299 17.7481 72.6628 17.8495 72.5776 17.9363C72.4922 18.0232 72.3903 18.0919 72.272 18.1422C72.1535 18.1926 72.0256 18.218 71.8882 18.218ZM71.8882 16.5567C71.7886 16.5567 71.6975 16.5748 71.6145 16.6111C71.5316 16.6475 71.4612 16.6978 71.4031 16.7621C71.345 16.8265 71.2992 16.9015 71.2663 16.9869C71.233 17.0723 71.2166 17.1641 71.2166 17.2625C71.2166 17.3608 71.2336 17.4532 71.268 17.5398C71.3024 17.6264 71.3496 17.7012 71.4102 17.7646C71.4706 17.8277 71.5421 17.878 71.6252 17.9156C71.708 17.9529 71.798 17.9716 71.8953 17.9716C71.9947 17.9716 72.0858 17.9534 72.169 17.9172C72.2517 17.8811 72.3228 17.8312 72.3821 17.7681C72.4415 17.7047 72.4874 17.6304 72.5208 17.545C72.5539 17.4596 72.5705 17.3678 72.5705 17.2694C72.5705 17.1713 72.5533 17.0787 72.5191 16.9921C72.4847 16.9055 72.4364 16.8301 72.375 16.7657C72.3133 16.7015 72.2412 16.6504 72.1581 16.613C72.0751 16.5754 71.9853 16.5567 71.8882 16.5567ZM75.0651 18.1758H74.7488L74.1804 17.433L73.6083 18.1758H73.3027L74.0242 17.2501L73.331 16.3563H73.6437L74.1875 17.06L74.7314 16.3563H75.037L74.3402 17.243L75.0651 18.1758ZM76.007 18.7493C75.9311 18.7493 75.8623 18.7416 75.8009 18.7265C75.7392 18.7113 75.6775 18.6882 75.6161 18.6579L75.7086 18.4433C75.7535 18.4666 75.7979 18.4836 75.8415 18.4942C75.8856 18.5048 75.9372 18.51 75.9963 18.51C76.0792 18.51 76.149 18.4855 76.2061 18.4361C76.2627 18.3869 76.3185 18.2975 76.373 18.1685L75.5378 16.3563H75.8401L76.5081 17.873L77.0981 16.3563H77.3892L76.6182 18.2356C76.5402 18.4232 76.4529 18.5559 76.3571 18.6334C76.2612 18.7107 76.1444 18.7493 76.007 18.7493ZM81.5366 18.1758H81.3126L79.7064 16.1556V18.1758H79.4329V15.7122H79.6959L81.2629 17.6865V15.7122H81.5366V18.1758ZM83.2495 18.218C83.1237 18.218 83.0054 18.1949 82.894 18.1494C82.7826 18.1035 82.6851 18.0389 82.6018 17.9559C82.5182 17.8726 82.4519 17.7722 82.4028 17.6549C82.3535 17.5375 82.329 17.4085 82.329 17.2677C82.329 17.1364 82.351 17.0126 82.3948 16.8963C82.4387 16.7804 82.4997 16.6793 82.5777 16.5937C82.656 16.5081 82.7489 16.4406 82.8567 16.3914C82.9645 16.3419 83.0824 16.3174 83.2103 16.3174C83.3454 16.3174 83.4662 16.3426 83.5729 16.393C83.6795 16.4437 83.7695 16.5123 83.8429 16.5991C83.9163 16.6859 83.9721 16.7879 84.01 16.9053C84.0478 17.0226 84.0667 17.1481 84.0667 17.2818V17.3205L84.0633 17.3662H82.6098C82.6192 17.4648 82.6427 17.5523 82.6809 17.6285C82.7189 17.7047 82.7673 17.7691 82.8265 17.8219C82.8858 17.8748 82.9521 17.9147 83.0255 17.9415C83.0989 17.9685 83.1759 17.9822 83.2564 17.9822C83.3844 17.9822 83.4941 17.9588 83.5851 17.9118C83.6763 17.8647 83.7598 17.8028 83.8357 17.7253L84.0062 17.8765C83.914 17.9797 83.8085 18.0626 83.69 18.1245C83.5717 18.1868 83.4249 18.218 83.2495 18.218ZM83.2032 16.5463C83.123 16.5463 83.049 16.5621 82.9806 16.5937C82.9123 16.6255 82.8523 16.6689 82.8005 16.7239C82.7487 16.7792 82.7063 16.8442 82.6734 16.9194C82.6404 16.9944 82.619 17.0764 82.6098 17.1655H83.786C83.7789 17.0837 83.7619 17.005 83.7346 16.9298C83.7076 16.8548 83.67 16.7891 83.6218 16.7326C83.5736 16.6766 83.5144 16.6313 83.4452 16.5972C83.3756 16.5634 83.295 16.5463 83.2032 16.5463ZM85.4102 18.2074C85.3366 18.2074 85.268 18.198 85.2039 18.1791C85.1399 18.1604 85.0849 18.1305 85.0388 18.0894C84.9924 18.0485 84.9564 17.9949 84.9302 17.9293C84.9044 17.8636 84.8913 17.7851 84.8913 17.6935V16.5956H84.6353V16.3563H84.8913V15.8071H85.1651V16.3563H85.7477V16.5956H85.1651V17.6582C85.1651 17.771 85.1932 17.8495 85.2502 17.8942C85.307 17.9388 85.3817 17.961 85.474 17.961C85.5214 17.961 85.5659 17.9565 85.6074 17.9469C85.6487 17.9376 85.6932 17.9212 85.7406 17.8977V18.1299C85.6932 18.1559 85.6428 18.1752 85.5896 18.1881C85.5363 18.201 85.4763 18.2074 85.4102 18.2074ZM88.4378 18.1897H88.1998L87.7058 16.7538L87.2083 18.1897H86.9667L86.3234 16.3563H86.6148L87.098 17.8167L87.5921 16.3492H87.8195L88.317 17.8167L88.8005 16.3563H89.0846L88.4378 18.1897ZM90.5381 18.218C90.4008 18.218 90.2739 18.1926 90.1577 18.1422C90.0417 18.0919 89.941 18.0238 89.8559 17.9382C89.7705 17.8526 89.704 17.7521 89.6568 17.6372C89.6092 17.5224 89.5857 17.4002 89.5857 17.2712C89.5857 17.1423 89.6092 17.0195 89.6568 16.9034C89.704 16.7873 89.7705 16.6859 89.8559 16.5991C89.941 16.5123 90.0423 16.4437 90.1596 16.393C90.277 16.3426 90.4054 16.3174 90.5453 16.3174C90.6824 16.3174 90.81 16.3426 90.9272 16.393C91.0444 16.4437 91.1458 16.5116 91.2309 16.5972C91.3165 16.683 91.3825 16.7831 91.4302 16.8982C91.4773 17.0133 91.5013 17.1352 91.5013 17.2642C91.5013 17.3934 91.4767 17.5159 91.4283 17.6318C91.3796 17.7481 91.3127 17.8495 91.2275 17.9363C91.1422 18.0232 91.0403 18.0919 90.922 18.1422C90.8032 18.1926 90.6755 18.218 90.5381 18.218ZM90.5381 16.5567C90.4385 16.5567 90.3475 16.5748 90.2644 16.6111C90.1816 16.6475 90.1111 16.6978 90.053 16.7621C89.9949 16.8265 89.9492 16.9015 89.9163 16.9869C89.8829 17.0723 89.8666 17.1641 89.8666 17.2625C89.8666 17.3608 89.8835 17.4532 89.9179 17.5398C89.9523 17.6264 89.9995 17.7012 90.0599 17.7646C90.1205 17.8277 90.1921 17.878 90.2751 17.9156C90.358 17.9529 90.4479 17.9716 90.5453 17.9716C90.6447 17.9716 90.7357 17.9534 90.819 17.9172C90.9016 17.8811 90.9727 17.8312 91.0321 17.7681C91.0914 17.7047 91.1374 17.6304 91.1705 17.545C91.2038 17.4596 91.2204 17.3678 91.2204 17.2694C91.2204 17.1713 91.2032 17.0787 91.169 16.9921C91.1346 16.9055 91.0864 16.8301 91.0249 16.7657C90.9633 16.7015 90.8909 16.6504 90.8081 16.613C90.725 16.5754 90.6352 16.5567 90.5381 16.5567ZM92.5174 18.1758H92.2439V16.3563H92.5174V16.8313C92.5508 16.7561 92.5921 16.6872 92.6418 16.6236C92.6915 16.5602 92.7486 16.5056 92.8125 16.4601C92.8765 16.4142 92.9464 16.3797 93.0223 16.3563C93.0909 16.3349 93.1643 16.3243 93.2427 16.3243C93.2509 16.3243 93.2591 16.3243 93.2673 16.3245V16.6167H93.2461C93.1464 16.6167 93.0523 16.6344 92.9636 16.6695C92.8746 16.7046 92.797 16.7574 92.7307 16.8278C92.6645 16.8982 92.6122 16.9856 92.5745 17.0899C92.5365 17.1944 92.5174 17.3147 92.5174 17.4507V18.1758ZM95.563 18.1758H95.2361L94.5788 17.3275L94.2054 17.7006V18.1758H93.9317V15.6064H94.2054V17.3803L95.1971 16.3563H95.5383L94.7669 17.1375L95.563 18.1758Z" fill="#434396" stroke="#434396" stroke-width="0.225025" stroke-linecap="round" stroke-linejoin="round"/>
</g>
<defs>
<linearGradient id="paint0_linear_2539_11339" x1="5.45245" y1="0" x2="5.45245" y2="21.8818" gradientUnits="userSpaceOnUse">
<stop stop-color="#E237B7"/>
<stop offset="1" stop-color="#705CDE"/>
</linearGradient>
<linearGradient id="paint1_linear_2539_11339" x1="5.47359" y1="2.62524" x2="5.47359" y2="21.8836" gradientUnits="userSpaceOnUse">
<stop stop-color="#E237B7"/>
<stop offset="1" stop-color="#705CDE"/>
</linearGradient>
<clipPath id="clip0_2539_11339">
<rect width="96" height="22" fill="white"/>
</clipPath>
</defs>
</svg>
